<svg width="1200" height="900" viewBox="0 0 1200 900" fill="none" xmlns="http://www.w3.org/2000/svg">
  <rect width="1200" height="900" rx="40" fill="#020617"/>
  <rect x="56" y="56" width="1088" height="788" rx="32" fill="#0F172A" stroke="#1E293B"/>
  <rect x="96" y="96" width="1008" height="96" rx="24" fill="#111827"/>
  <rect x="128" y="128" width="280" height="28" rx="14" fill="#F8FAFC"/>
  <rect x="96" y="232" width="224" height="184" rx="28" fill="#111827"/>
  <rect x="344" y="232" width="224" height="184" rx="28" fill="#111827"/>
  <rect x="592" y="232" width="224" height="184" rx="28" fill="#111827"/>
  <rect x="840" y="232" width="264" height="184" rx="28" fill="#111827"/>
  <rect x="96" y="456" width="628" height="324" rx="28" fill="#111827"/>
  <rect x="764" y="456" width="340" height="324" rx="28" fill="#111827"/>
  <rect x="144" y="720" width="44" height="28" rx="14" fill="#3B82F6"/>
  <rect x="204" y="660" width="44" height="88" rx="14" fill="#3B82F6"/>
  <rect x="264" y="604" width="44" height="144" rx="14" fill="#3B82F6"/>
  <rect x="324" y="568" width="44" height="180" rx="14" fill="#22C55E"/>
  <rect x="384" y="628" width="44" height="120" rx="14" fill="#22C55E"/>
  <rect x="444" y="544" width="44" height="204" rx="14" fill="#22C55E"/>
  <rect x="816" y="508" width="236" height="28" rx="14" fill="#1E293B"/>
  <rect x="816" y="564" width="236" height="28" rx="14" fill="#1E293B"/>
  <rect x="816" y="620" width="236" height="28" rx="14" fill="#1E293B"/>
  <rect x="816" y="676" width="236" height="28" rx="14" fill="#1E293B"/>
</svg>
