<svg width="1200" height="900" viewBox="0 0 1200 900" fill="none" xmlns="http://www.w3.org/2000/svg">
  <rect width="1200" height="900" rx="40" fill="#0F172A"/>
  <rect x="96" y="96" width="1008" height="708" rx="32" fill="#F8FAFC"/>
  <rect x="144" y="144" width="560" height="612" rx="28" fill="#FFFFFF" stroke="#E2E8F0"/>
  <rect x="736" y="144" width="320" height="612" rx="28" fill="#020617"/>
  <rect x="184" y="196" width="220" height="28" rx="14" fill="#0F172A"/>
  <rect x="184" y="256" width="480" height="56" rx="20" fill="#F1F5F9"/>
  <rect x="184" y="336" width="480" height="56" rx="20" fill="#F1F5F9"/>
  <rect x="184" y="416" width="228" height="56" rx="20" fill="#F1F5F9"/>
  <rect x="436" y="416" width="228" height="56" rx="20" fill="#F1F5F9"/>
  <rect x="184" y="496" width="480" height="56" rx="20" fill="#F1F5F9"/>
  <rect x="184" y="616" width="220" height="64" rx="24" fill="#2563EB"/>
  <rect x="776" y="204" width="160" height="28" rx="14" fill="#FFFFFF"/>
  <rect x="776" y="272" width="240" height="18" rx="9" fill="#475569"/>
  <rect x="776" y="328" width="240" height="18" rx="9" fill="#334155"/>
  <rect x="776" y="384" width="240" height="18" rx="9" fill="#334155"/>
  <rect x="776" y="456" width="240" height="176" rx="24" fill="#111827"/>
</svg>
